<svg xmlns="http://www.w3.org/2000/svg" width="500" height="500"><defs><marker id="marker" viewBox="0 -5 10 10" refX="15" refY="-1.5" markerWidth="6" markerHeight="6" orient="auto"><path d="M 0,-5 L 10 ,0 L 0,5" fill="#555" stroke="#555"></path></marker></defs><g class="links"><path stroke-width="1px" stroke="#555" fill="none" marker-end="url(#marker)" d="M161.15325754518489,105.01407258363831A50.79486247845974,50.79486247845974 0,0,1 211.70515344164932,100.05182757974539"></path><path stroke-width="1px" stroke="#7CFC00" fill="none" marker-end="url(#marker)" d="M211.70515344164932,100.05182757974539A42.193224068230876,42.193224068230876 0,0,1 203.23915628917794,58.71667245137695"></path><path stroke-width="1px" stroke="#ff0000" fill="none" marker-end="url(#marker)" d="M211.70515344164932,100.05182757974539A81.8137051778896,81.8137051778896 0,0,1 285.02262652903045,136.35651729079765"></path><path stroke-width="1px" stroke="#555" fill="none" marker-end="url(#marker)" d="M285.02262652903045,136.35651729079765A78.58140730386066,78.58140730386066 0,0,1 311.0070868451297,210.5174598140444"></path><path stroke-width="1px" stroke="#7CFC00" fill="none" marker-end="url(#marker)" d="M311.0070868451297,210.5174598140444A78.56059867679046,78.56059867679046 0,0,1 232.54226356681878,206.6394226353722"></path><path stroke-width="1px" stroke="#555" fill="none" marker-end="url(#marker)" d="M232.54226356681878,206.6394226353722A55.40935317722149,55.40935317722149 0,0,1 199.2870350333903,250.9596910766566"></path><path stroke-width="1px" stroke="#7CFC00" fill="none" marker-end="url(#marker)" d="M199.2870350333903,250.9596910766566A66.28974054826256,66.28974054826256 0,0,1 257.834942356328,219.87155427078375"></path><path stroke-width="1px" stroke="#ff0000" fill="none" marker-end="url(#marker)" d="M199.2870350333903,250.9596910766566A67.0261607780101,67.0261607780101 0,0,1 266.1487400601749,255.6520923330403"></path><path stroke-width="1px" stroke="#ff0000" fill="none" marker-end="url(#marker)" d="M311.0070868451297,210.5174598140444A84.7792621663626,84.7792621663626 0,0,1 321.2540023829935,294.6751927649309"></path><path stroke-width="1px" stroke="#555" fill="none" marker-end="url(#marker)" d="M321.2540023829935,294.6751927649309A82.77154788653414,82.77154788653414 0,0,1 277.8419877788713,365.14877737323854"></path><path stroke-width="1px" stroke="#7CFC00" fill="none" marker-end="url(#marker)" d="M277.8419877788713,365.14877737323854A47.64658182269509,47.64658182269509 0,0,1 240.54164988781915,394.794713900866"></path><path stroke-width="1px" stroke="#ff0000" fill="none" marker-end="url(#marker)" d="M277.8419877788713,365.14877737323854A41.07798434198884,41.07798434198884 0,0,1 310.0667451369066,390.6235847486915"></path><path stroke-width="1px" stroke="#555" fill="none" marker-end="url(#marker)" d="M161.15325754518489,105.01407258363831A50.79486247845974,50.79486247845974 0,0,1 211.70515344164932,100.05182757974539"></path><path stroke-width="1px" stroke="#555" fill="none" marker-end="url(#marker)" d="M257.834942356328,219.87155427078375A53.988665779435685,53.988665779435685 0,0,1 311.0070868451297,210.5174598140444"></path><path stroke-width="1px" stroke="#555" fill="none" marker-end="url(#marker)" d="M266.1487400601749,255.6520923330403A63.634945815204944,63.634945815204944 0,0,1 311.0070868451297,210.5174598140444"></path><path stroke-width="1px" stroke="#555" fill="none" marker-end="url(#marker)" d="M240.54164988781915,394.794713900866A47.64658182269509,47.64658182269509 0,0,1 277.8419877788713,365.14877737323854"></path></g><g class="nodes"><g transform="translate(57.831399638083276,336.7581609069199)"><circle r="8" style="stroke: #000; stroke-width: 1.5px;" fill="#fff"></circle><circle r="5" fill="#1f77b4" style="stroke: #000; stroke-width: 1.5px; stroke-dasharray: 3, 3;"></circle><text x="6" y="3" style="font-family: sans-serif; font-size: 10px;">(7) constructor</text><title>0</title></g><g transform="translate(161.15325754518489,105.01407258363831)"><circle r="4" style="stroke: #000; stroke-width: 1.5px;" fill="#fff"></circle><circle r="5" fill="#aec7e8" style="stroke: #000; stroke-width: 1.5px; stroke-dasharray: 3, 3;"></circle><text x="6" y="3" style="font-family: sans-serif; font-size: 10px;">(11) sendCoin</text><title>1</title></g><g transform="translate(211.70515344164932,100.05182757974539)"><circle r="4" style="stroke: #000; stroke-width: 1.5px;" fill="#fff"></circle><circle r="5" fill="#ff7f0e" style="stroke: #000; stroke-width: 1.5px; stroke-dasharray: 3, 3;"></circle><text x="6" y="3" style="font-family: sans-serif; font-size: 10px;">(12) &lt;</text><title>2</title></g><g transform="translate(203.23915628917794,58.71667245137695)"><circle r="8" style="stroke: #000; stroke-width: 1.5px;" fill="#fff"></circle><circle r="5" fill="#ffbb78" style="stroke: #000; stroke-width: 1.5px;"></circle><text x="6" y="3" style="font-family: sans-serif; font-size: 10px;">(12)</text><title>3</title></g><g transform="translate(285.02262652903045,136.35651729079765)"><circle r="4" style="stroke: #000; stroke-width: 1.5px;" fill="#fff"></circle><circle r="5" fill="#2ca02c" style="stroke: #000; stroke-width: 1.5px;"></circle><text x="6" y="3" style="font-family: sans-serif; font-size: 10px;">(14)</text><title>4</title></g><g transform="translate(311.0070868451297,210.5174598140444)"><circle r="4" style="stroke: #000; stroke-width: 1.5px;" fill="#fff"></circle><circle r="5" fill="#98df8a" style="stroke: #000; stroke-width: 1.5px; stroke-dasharray: 3, 3;"></circle><text x="6" y="3" style="font-family: sans-serif; font-size: 10px;">(15) &lt;</text><title>5</title></g><g transform="translate(232.54226356681878,206.6394226353722)"><circle r="4" style="stroke: #000; stroke-width: 1.5px;" fill="#fff"></circle><circle r="5" fill="#d62728" style="stroke: #000; stroke-width: 1.5px;"></circle><text x="6" y="3" style="font-family: sans-serif; font-size: 10px;">(15)</text><title>6</title></g><g transform="translate(199.2870350333903,250.9596910766566)"><circle r="4" style="stroke: #000; stroke-width: 1.5px;" fill="#fff"></circle><circle r="5" fill="#ff9896" style="stroke: #000; stroke-width: 1.5px; stroke-dasharray: 3, 3;"></circle><text x="6" y="3" style="font-family: sans-serif; font-size: 10px;">(16) &gt;</text><title>7</title></g><g transform="translate(257.834942356328,219.87155427078375)"><circle r="4" style="stroke: #000; stroke-width: 1.5px;" fill="#fff"></circle><circle r="5" fill="#9467bd" style="stroke: #000; stroke-width: 1.5px;"></circle><text x="6" y="3" style="font-family: sans-serif; font-size: 10px;">(16)</text><title>8</title></g><g transform="translate(266.1487400601749,255.6520923330403)"><circle r="4" style="stroke: #000; stroke-width: 1.5px;" fill="#fff"></circle><circle r="5" fill="#c5b0d5" style="stroke: #000; stroke-width: 1.5px;"></circle><text x="6" y="3" style="font-family: sans-serif; font-size: 10px;">(16)</text><title>9</title></g><g transform="translate(321.2540023829935,294.6751927649309)"><circle r="4" style="stroke: #000; stroke-width: 1.5px;" fill="#fff"></circle><circle r="5" fill="#8c564b" style="stroke: #000; stroke-width: 1.5px;"></circle><text x="6" y="3" style="font-family: sans-serif; font-size: 10px;">(19)</text><title>10</title></g><g transform="translate(277.8419877788713,365.14877737323854)"><circle r="4" style="stroke: #000; stroke-width: 1.5px;" fill="#fff"></circle><circle r="5" fill="#c49c94" style="stroke: #000; stroke-width: 1.5px; stroke-dasharray: 3, 3;"></circle><text x="6" y="3" style="font-family: sans-serif; font-size: 10px;">(22) &lt;</text><title>11</title></g><g transform="translate(240.54164988781915,394.794713900866)"><circle r="4" style="stroke: #000; stroke-width: 1.5px;" fill="#fff"></circle><circle r="5" fill="#e377c2" style="stroke: #000; stroke-width: 1.5px;"></circle><text x="6" y="3" style="font-family: sans-serif; font-size: 10px;">(22)</text><title>12</title></g><g transform="translate(310.0667451369066,390.6235847486915)"><circle r="8" style="stroke: #000; stroke-width: 1.5px;" fill="#fff"></circle><circle r="5" fill="#f7b6d2" style="stroke: #000; stroke-width: 1.5px;"></circle><text x="6" y="3" style="font-family: sans-serif; font-size: 10px;">(24)</text><title>13</title></g></g></svg>