<svg xmlns="http://www.w3.org/2000/svg" width="2000" height="2000"><defs><marker id="marker" viewBox="0 -5 10 10" refX="15" refY="-1.5" markerWidth="6" markerHeight="6" orient="auto"><path d="M 0,-5 L 10 ,0 L 0,5" fill="#555" stroke="#555"></path></marker></defs><g class="links"><path stroke-width="1px" stroke="#555" fill="none" marker-end="url(#marker)" d="M250,20A82.77745626750537,82.77745626750537 0,0,1 304.81914117178724,82.02393914696508"></path><path stroke-width="1px" stroke="#555" fill="none" marker-end="url(#marker)" d="M450,20A80.31570500957507,80.31570500957507 0,0,1 499.5078158053019,83.24230107588892"></path><path stroke-width="1px" stroke="#555" fill="none" marker-end="url(#marker)" d="M650,20A238.06896034924242,238.06896034924242 0,0,1 728.0193357004104,244.9217933830242"></path><path stroke-width="1px" stroke="#555" fill="none" marker-end="url(#marker)" d="M728.0193357004104,244.9217933830242A180.6247053170661,180.6247053170661 0,0,1 771.9531671730741,420.1219721015647"></path><path stroke-width="1px" stroke="#7CFC00" fill="none" marker-end="url(#marker)" d="M771.9531671730741,420.1219721015647A37.4813493929052,37.4813493929052 0,0,1 793.2568265186547,450.96035161152747"></path><path stroke-width="1px" stroke="#ff0000" fill="none" marker-end="url(#marker)" d="M771.9531671730741,420.1219721015647A141.7796398775163,141.7796398775163 0,0,1 781.2545412076016,561.5961772587877"></path><path stroke-width="1px" stroke="#7CFC00" fill="none" marker-end="url(#marker)" d="M781.2545412076016,561.5961772587877A84.80365368510151,84.80365368510151 0,0,1 749.5815936646942,640.263095796931"></path><path stroke-width="1px" stroke="#7CFC00" fill="none" marker-end="url(#marker)" d="M749.5815936646942,640.263095796931A44.41869513407206,44.41869513407206 0,0,1 713.8591158932237,666.6624340325844"></path><path stroke-width="1px" stroke="#ff0000" fill="none" marker-end="url(#marker)" d="M749.5815936646942,640.263095796931A54.71305137552887,54.71305137552887 0,0,1 736.3632612171267,693.355408593859"></path><path stroke-width="1px" stroke="#555" fill="none" marker-end="url(#marker)" d="M713.8591158932237,666.6624340325844A43.36853880805586,43.36853880805586 0,0,1 697.272078527088,706.7336250525711"></path><path stroke-width="1px" stroke="#555" fill="none" marker-end="url(#marker)" d="M736.3632612171267,693.355408593859A41.31703328800534,41.31703328800534 0,0,1 697.272078527088,706.7336250525711"></path><path stroke-width="1px" stroke="#ff0000" fill="none" marker-end="url(#marker)" d="M781.2545412076016,561.5961772587877A61.117587239808145,61.117587239808145 0,0,1 805.3950721079925,617.7441446116923"></path><path stroke-width="1px" stroke="#555" fill="none" marker-end="url(#marker)" d="M805.3950721079925,617.7441446116923A39.87236115477639,39.87236115477639 0,0,1 818.7089910188703,655.3279808620206"></path><path stroke-width="1px" stroke="#555" fill="none" marker-end="url(#marker)" d="M850,20A75.99891971428305,75.99891971428305 0,0,1 888.1696513344058,85.71844120753272"></path><path stroke-width="1px" stroke="#555" fill="none" marker-end="url(#marker)" d="M1050,20A195.00712701641186,195.00712701641186 0,0,1 1121.257990174705,201.5215646237566"></path><path stroke-width="1px" stroke="#7CFC00" fill="none" marker-end="url(#marker)" d="M1121.257990174705,201.5215646237566A104.32359119775563,104.32359119775563 0,0,1 1155.1607294942944,300.18268131632396"></path><path stroke-width="1px" stroke="#555" fill="none" marker-end="url(#marker)" d="M1155.1607294942944,300.18268131632396A48.717341644116885,48.717341644116885 0,0,1 1170.2608900315981,346.5007612486491"></path><path stroke-width="1px" stroke="#ff0000" fill="none" marker-end="url(#marker)" d="M1121.257990174705,201.5215646237566A46.93052953192488,46.93052953192488 0,0,1 1139.9736715534577,244.55873312583023"></path></g><g class="nodes"><g transform="translate(250,20)"><circle r="4" style="stroke: #000; stroke-width: 1.5px;" fill="#fff"></circle><circle r="5" fill="#1f77b4" style="stroke: #000; stroke-width: 1.5px; stroke-dasharray: 3, 3;"></circle><text x="6" y="3" style="font-family: sans-serif; font-size: 10px;">(2)  test</text><title>f-2</title></g><g transform="translate(304.81914117178724,82.02393914696508)"><circle r="4" style="stroke: #000; stroke-width: 1.5px;" fill="#fff"></circle><circle r="5" fill="#aec7e8" style="stroke: #000; stroke-width: 1.5px;"></circle><text x="6" y="3" style="font-family: sans-serif; font-size: 10px;">(3)</text><title>s-3</title></g><g transform="translate(450,20)"><circle r="4" style="stroke: #000; stroke-width: 1.5px;" fill="#fff"></circle><circle r="5" fill="#ff7f0e" style="stroke: #000; stroke-width: 1.5px; stroke-dasharray: 3, 3;"></circle><text x="6" y="3" style="font-family: sans-serif; font-size: 10px;">(7)  constructor</text><title>f-7</title></g><g transform="translate(499.5078158053019,83.24230107588892)"><circle r="4" style="stroke: #000; stroke-width: 1.5px;" fill="#fff"></circle><circle r="5" fill="#ffbb78" style="stroke: #000; stroke-width: 1.5px;"></circle><text x="6" y="3" style="font-family: sans-serif; font-size: 10px;">(8)</text><title>s-8</title></g><g transform="translate(650,20)"><circle r="4" style="stroke: #000; stroke-width: 1.5px;" fill="#fff"></circle><circle r="5" fill="#2ca02c" style="stroke: #000; stroke-width: 1.5px; stroke-dasharray: 3, 3;"></circle><text x="6" y="3" style="font-family: sans-serif; font-size: 10px;">(11)  pay</text><title>f-11</title></g><g transform="translate(728.0193357004104,244.9217933830242)"><circle r="4" style="stroke: #000; stroke-width: 1.5px;" fill="#fff"></circle><circle r="5" fill="#98df8a" style="stroke: #000; stroke-width: 1.5px;"></circle><text x="6" y="3" style="font-family: sans-serif; font-size: 10px;">(12)</text><title>s-12</title></g><g transform="translate(771.9531671730741,420.1219721015647)"><circle r="4" style="stroke: #000; stroke-width: 1.5px;" fill="#fff"></circle><circle r="5" fill="#d62728" style="stroke: #000; stroke-width: 1.5px;"></circle><text x="6" y="3" style="font-family: sans-serif; font-size: 10px;">(13) &lt;</text><title>b-13</title></g><g transform="translate(793.2568265186547,450.96035161152747)"><circle r="4" style="stroke: #000; stroke-width: 1.5px;" fill="#fff"></circle><circle r="5" fill="#ff9896" style="stroke: #000; stroke-width: 1.5px;"></circle><text x="6" y="3" style="font-family: sans-serif; font-size: 10px;">(14)</text><title>s-14</title></g><g transform="translate(781.2545412076016,561.5961772587877)"><circle r="4" style="stroke: #000; stroke-width: 1.5px;" fill="#fff"></circle><circle r="5" fill="#9467bd" style="stroke: #000; stroke-width: 1.5px;"></circle><text x="6" y="3" style="font-family: sans-serif; font-size: 10px;">(15) ===</text><title>b-15</title></g><g transform="translate(749.5815936646942,640.263095796931)"><circle r="4" style="stroke: #000; stroke-width: 1.5px;" fill="#fff"></circle><circle r="5" fill="#c5b0d5" style="stroke: #000; stroke-width: 1.5px;"></circle><text x="6" y="3" style="font-family: sans-serif; font-size: 10px;">(16) &gt;</text><title>b-16</title></g><g transform="translate(713.8591158932237,666.6624340325844)"><circle r="4" style="stroke: #000; stroke-width: 1.5px;" fill="#fff"></circle><circle r="5" fill="#8c564b" style="stroke: #000; stroke-width: 1.5px;"></circle><text x="6" y="3" style="font-family: sans-serif; font-size: 10px;">(17)</text><title>s-17</title></g><g transform="translate(736.3632612171267,693.355408593859)"><circle r="4" style="stroke: #000; stroke-width: 1.5px;" fill="#fff"></circle><circle r="5" fill="#c49c94" style="stroke: #000; stroke-width: 1.5px;"></circle><text x="6" y="3" style="font-family: sans-serif; font-size: 10px;">(18)</text><title>s-18</title></g><g transform="translate(697.272078527088,706.7336250525711)"><circle r="4" style="stroke: #000; stroke-width: 1.5px;" fill="#fff"></circle><circle r="5" fill="#e377c2" style="stroke: #000; stroke-width: 1.5px;"></circle><text x="6" y="3" style="font-family: sans-serif; font-size: 10px;">(19)</text><title>s-19</title></g><g transform="translate(805.3950721079925,617.7441446116923)"><circle r="4" style="stroke: #000; stroke-width: 1.5px;" fill="#fff"></circle><circle r="5" fill="#f7b6d2" style="stroke: #000; stroke-width: 1.5px;"></circle><text x="6" y="3" style="font-family: sans-serif; font-size: 10px;">(21)</text><title>s-21</title></g><g transform="translate(818.7089910188703,655.3279808620206)"><circle r="4" style="stroke: #000; stroke-width: 1.5px;" fill="#fff"></circle><circle r="5" fill="#7f7f7f" style="stroke: #000; stroke-width: 1.5px;"></circle><text x="6" y="3" style="font-family: sans-serif; font-size: 10px;">(22)</text><title>s-22</title></g><g transform="translate(850,20)"><circle r="4" style="stroke: #000; stroke-width: 1.5px;" fill="#fff"></circle><circle r="5" fill="#c7c7c7" style="stroke: #000; stroke-width: 1.5px; stroke-dasharray: 3, 3;"></circle><text x="6" y="3" style="font-family: sans-serif; font-size: 10px;">(26)  save</text><title>f-26</title></g><g transform="translate(888.1696513344058,85.71844120753272)"><circle r="4" style="stroke: #000; stroke-width: 1.5px;" fill="#fff"></circle><circle r="5" fill="#bcbd22" style="stroke: #000; stroke-width: 1.5px;"></circle><text x="6" y="3" style="font-family: sans-serif; font-size: 10px;">(27)</text><title>s-27</title></g><g transform="translate(1050,20)"><circle r="4" style="stroke: #000; stroke-width: 1.5px;" fill="#fff"></circle><circle r="5" fill="#dbdb8d" style="stroke: #000; stroke-width: 1.5px; stroke-dasharray: 3, 3;"></circle><text x="6" y="3" style="font-family: sans-serif; font-size: 10px;">(30)  calculateInterest</text><title>f-30</title></g><g transform="translate(1121.257990174705,201.5215646237566)"><circle r="4" style="stroke: #000; stroke-width: 1.5px;" fill="#fff"></circle><circle r="5" fill="#17becf" style="stroke: #000; stroke-width: 1.5px;"></circle><text x="6" y="3" style="font-family: sans-serif; font-size: 10px;">(31) &lt;</text><title>b-31</title></g><g transform="translate(1155.1607294942944,300.18268131632396)"><circle r="4" style="stroke: #000; stroke-width: 1.5px;" fill="#fff"></circle><circle r="5" fill="#9edae5" style="stroke: #000; stroke-width: 1.5px;"></circle><text x="6" y="3" style="font-family: sans-serif; font-size: 10px;">(32)</text><title>s-32</title></g><g transform="translate(1170.2608900315981,346.5007612486491)"><circle r="4" style="stroke: #000; stroke-width: 1.5px;" fill="#fff"></circle><circle r="5" fill="#1f77b4" style="stroke: #000; stroke-width: 1.5px;"></circle><text x="6" y="3" style="font-family: sans-serif; font-size: 10px;">(33)</text><title>s-33</title></g><g transform="translate(1139.9736715534577,244.55873312583023)"><circle r="4" style="stroke: #000; stroke-width: 1.5px;" fill="#fff"></circle><circle r="5" fill="#aec7e8" style="stroke: #000; stroke-width: 1.5px;"></circle><text x="6" y="3" style="font-family: sans-serif; font-size: 10px;">(34)</text><title>s-34</title></g></g></svg>